<svg viewBox="0 0 500 203" fill="inherit" xmlns="http://www.w3.org/2000/svg" class="block w-20 fill-white"><path fill-rule="evenodd" clip-rule="evenodd" d="M0 0.0855131C0 0.132607 14.0561 29.3837 31.2355 65.0879L62.4709 130.005L68.8103 130.061L75.1494 130.117L106.305 65.3093C123.441 29.6655 137.498 0.388899 137.544 0.251087C137.601 0.0835301 132.701 0 122.809 0H107.989L91.1503 36.2501C81.8891 56.188 73.1092 75.0935 71.6397 78.263C70.1698 81.4326 68.8994 84.026 68.8162 84.026C68.7332 84.026 60.1416 65.1212 49.7237 42.0154L30.7827 0.00520516L15.3913 0.00247864C6.92598 0.00123932 0 0.0384189 0 0.0855131ZM185.811 0.3656C165.568 2.66776 148.397 12.848 137.573 28.9647C131.616 37.8335 128.142 47.247 126.583 58.7439C126.051 62.6692 126.18 72.0663 126.824 76.2182C128.438 86.6218 131.76 95.2101 137.467 103.731C140.09 107.648 142.242 110.243 145.801 113.782C156.242 124.165 169.057 130.54 184.224 132.895C189.083 133.65 200.584 133.719 205.259 133.022C223.437 130.312 238.29 122.135 248.784 109.06C251.284 105.944 253.341 102.86 253.078 102.621C252.623 102.207 232.574 88.7281 232.201 88.5859C231.983 88.5026 231.804 88.5482 231.804 88.6874C231.804 89.1725 228.72 93.0888 226.718 95.1456C216.668 105.471 201.115 110.115 186.44 107.172C181.461 106.173 175.295 103.52 171.056 100.553C168.332 98.6459 163.849 94.2158 161.949 91.5524C160.176 89.0681 158.33 85.6102 157.196 82.6511C156.397 80.5686 155.035 75.7079 155.035 74.9423C155.035 74.6616 163.603 74.6072 207.635 74.6072C257.496 74.6072 260.244 74.5845 260.414 74.1734C260.513 73.9348 260.588 70.4493 260.582 66.4275C260.572 60.1286 260.494 58.6272 260.016 55.5902C256.999 36.402 247.135 20.7621 231.68 10.6619C228.228 8.40607 222.073 5.35809 218.202 3.98739C214.218 2.57655 209.426 1.37366 205.226 0.729959C200.751 0.043872 190.356 -0.151197 185.811 0.3656ZM201.315 25.3027C213.664 27.3444 224.216 35.0272 229.328 45.6989C230.418 47.9741 231.485 51.113 231.888 53.2289L232.041 54.0344H194.036C161.087 54.0344 156.032 53.9868 156.032 53.6769C156.032 53.4801 156.381 52.2809 156.808 51.0121C159.639 42.5968 164.975 35.5727 172.044 30.957C180.257 25.5942 190.782 23.561 201.315 25.3027ZM338.36 72.0472C329.587 72.475 321.511 75.0372 314.779 79.528C310.313 82.5079 306.746 86.2151 304.128 90.5944L303.092 92.3295V83.5922L303.089 74.8549H290.503H277.916V138.556V202.257H291.369H304.818L304.908 165.14C304.992 128.702 305.003 127.976 305.511 125.516C306.67 119.906 308.366 115.616 310.941 111.769C315.48 104.989 321.905 100.811 330.813 98.8482C332.816 98.4062 334.249 98.3228 341.536 98.2217L349.95 98.1053V84.993V71.8807L344.902 71.9275C342.126 71.9532 339.182 72.0073 338.36 72.0472ZM363.042 73.4297C363.371 74.1453 377.436 103.396 394.293 138.432L424.944 202.133L431.254 202.199L437.564 202.265L468.782 137.383C485.953 101.697 500 72.4167 500 72.3142C500 72.212 493.352 72.1284 485.229 72.1284H470.458L450.894 114.258L431.332 156.387L430.807 155.341C430.52 154.766 421.947 135.808 411.763 113.212L393.24 72.1284H377.841H362.441L363.042 73.4297Z" fill="inherit"></path><path d="M282.273 18.5682V10.4545H320.5V18.5682H306.25V57H296.523V18.5682H282.273ZM345.995 57V10.4545H364.359C367.874 10.4545 370.874 11.0833 373.359 12.3409C375.859 13.5833 377.761 15.3485 379.064 17.6364C380.382 19.9091 381.041 22.5833 381.041 25.6591C381.041 28.75 380.374 31.4091 379.041 33.6364C377.708 35.8485 375.776 37.5455 373.245 38.7273C370.73 39.9091 367.685 40.5 364.109 40.5H351.814V32.5909H362.518C364.397 32.5909 365.958 32.3333 367.2 31.8182C368.442 31.303 369.367 30.5303 369.973 29.5C370.594 28.4697 370.905 27.1894 370.905 25.6591C370.905 24.1136 370.594 22.8106 369.973 21.75C369.367 20.6894 368.435 19.8864 367.177 19.3409C365.935 18.7803 364.367 18.5 362.473 18.5H355.836V57H345.995ZM371.132 35.8182L382.7 57H371.836L360.518 35.8182H371.132ZM417.036 10.4545V57H407.195V10.4545H417.036ZM444.333 57V10.4545H462.697C466.227 10.4545 469.234 11.1288 471.719 12.4773C474.204 13.8106 476.098 15.6667 477.401 18.0455C478.719 20.4091 479.378 23.1364 479.378 26.2273C479.378 29.3182 478.712 32.0455 477.378 34.4091C476.045 36.7727 474.113 38.6136 471.583 39.9318C469.068 41.25 466.022 41.9091 462.447 41.9091H450.742V34.0227H460.856C462.75 34.0227 464.31 33.697 465.538 33.0455C466.78 32.3788 467.704 31.4621 468.31 30.2955C468.931 29.1136 469.242 27.7576 469.242 26.2273C469.242 24.6818 468.931 23.3333 468.31 22.1818C467.704 21.0151 466.78 20.1136 465.538 19.4773C464.295 18.8258 462.719 18.5 460.81 18.5H454.174V57H444.333Z" fill="inherit"></path></svg>